<?xml version="1.0" encoding="utf-8"?>
<!-- Generator: Adobe Illustrator 24.0.3, SVG Export Plug-In . SVG Version: 6.00 Build 0)  -->
<svg version="1.1" id="docs" xmlns="http://www.w3.org/2000/svg" xmlns:xlink="http://www.w3.org/1999/xlink" x="0px" y="0px"
	 viewBox="0 0 512 512" style="enable-background:new 0 0 512 512;" xml:space="preserve">
<style type="text/css">
	.st0{fill:#2D72A5;}
</style>
<path class="st0" d="M474.1,100.7h-30.2v-43c0-4.9-4-8.9-8.9-8.9H278.7c-0.1,0-0.1,0-0.2,0c-0.2,0-0.3,0-0.5,0c-0.1,0-0.3,0-0.4,0
	c-0.1,0-0.3,0-0.4,0.1c-0.1,0-0.3,0.1-0.4,0.1c-0.1,0-0.3,0.1-0.4,0.1c-0.1,0-0.3,0.1-0.4,0.1c-0.1,0-0.3,0.1-0.4,0.1
	c-0.1,0.1-0.3,0.1-0.4,0.2c-0.1,0.1-0.3,0.1-0.4,0.2c-0.1,0.1-0.3,0.1-0.4,0.2c-0.1,0.1-0.3,0.2-0.4,0.2c-0.1,0.1-0.2,0.1-0.3,0.2
	c-0.1,0.1-0.2,0.2-0.4,0.3c-0.1,0.1-0.2,0.2-0.3,0.3c-0.1,0.1-0.2,0.2-0.3,0.3c-0.1,0.1-0.2,0.2-0.3,0.3c0,0-0.1,0.1-0.1,0.1
	L256,69.3l-16.2-17.6c-1.7-1.8-4.1-2.9-6.6-2.9H77c-4.9,0-8.9,4-8.9,8.9v43H37.9c-4.9,0-8.9,4-8.9,8.9v264c0,4.9,4,8.9,8.9,8.9h173
	c-0.1,0.6-0.2,1.2-0.2,1.8v61h-60.9c-4.9,0-8.9,4-8.9,8.9s4,8.9,8.9,8.9h212.3c4.9,0,8.9-4,8.9-8.9s-4-8.9-8.9-8.9h-60.9v-61
	c0-0.6-0.1-1.2-0.2-1.8h173c4.9,0,8.9-4,8.9-8.9v-264C483,104.7,479,100.7,474.1,100.7z M85.9,306.6h143.5l18.1,19.7H85.9V306.6z
	 M282.7,306.6h143.5v19.7H264.6L282.7,306.6z M426.1,288.8H278.8c-0.1,0-0.1,0-0.2,0c-0.2,0-0.3,0-0.5,0c-0.1,0-0.3,0-0.4,0
	c-0.1,0-0.3,0-0.4,0.1c-0.2,0-0.3,0.1-0.5,0.1c-0.1,0-0.3,0.1-0.4,0.1c-0.2,0-0.3,0.1-0.5,0.1c-0.1,0-0.3,0.1-0.4,0.1
	c-0.1,0.1-0.3,0.1-0.4,0.2c-0.1,0.1-0.3,0.1-0.4,0.2c-0.1,0.1-0.3,0.1-0.4,0.2c-0.1,0.1-0.3,0.2-0.4,0.2c-0.1,0.1-0.2,0.1-0.3,0.2
	c-0.1,0.1-0.2,0.2-0.4,0.3c-0.1,0.1-0.2,0.2-0.3,0.3c-0.1,0.1-0.2,0.2-0.3,0.3c-0.1,0.1-0.2,0.2-0.3,0.3c0,0-0.1,0.1-0.1,0.1
	l-8.4,9.1V87.2l18.8-20.5h143.4V288.8z M85.9,66.6h143.4L246,84.8v213.6l-6.2-6.7c-1.7-1.8-4.1-2.9-6.6-2.9H85.9V66.6z M283.4,384.3
	v61h-54.8v-61c0-0.6-0.1-1.2-0.2-1.8h55.2C283.5,383.1,283.4,383.7,283.4,384.3z M465.2,364.7H46.8V118.5h21.3v179.2
	c0,0.3,0,0.6,0,0.9c-0.1,0.4-0.1,0.9-0.1,1.4v35.2c0,4.9,4,8.9,8.9,8.9h358.1c4.9,0,8.9-4,8.9-8.9v-34.5c0-0.6-0.1-1.2-0.2-1.8
	c0.1-0.4,0.1-0.8,0.1-1.3V118.5h21.3V364.7z M220.4,105.9c0,4.9-4,8.9-8.9,8.9h-91.1c-4.9,0-8.9-4-8.9-8.9s4-8.9,8.9-8.9h91.1
	C216.4,97,220.4,101,220.4,105.9z M220.4,153.4c0,4.9-4,8.9-8.9,8.9h-91.1c-4.9,0-8.9-4-8.9-8.9s4-8.9,8.9-8.9h91.1
	C216.4,144.5,220.4,148.5,220.4,153.4z M220.4,200.9c0,4.9-4,8.9-8.9,8.9h-91.1c-4.9,0-8.9-4-8.9-8.9s4-8.9,8.9-8.9h91.1
	C216.4,192,220.4,196,220.4,200.9z M220.4,248.4c0,4.9-4,8.9-8.9,8.9h-91.1c-4.9,0-8.9-4-8.9-8.9c0-4.9,4-8.9,8.9-8.9h91.1
	C216.4,239.5,220.4,243.5,220.4,248.4z M291.6,105.9c0-4.9,4-8.9,8.9-8.9h91.1c4.9,0,8.9,4,8.9,8.9s-4,8.9-8.9,8.9h-91.1
	C295.6,114.8,291.6,110.8,291.6,105.9z M291.6,153.4c0-4.9,4-8.9,8.9-8.9h91.1c4.9,0,8.9,4,8.9,8.9s-4,8.9-8.9,8.9h-91.1
	C295.6,162.3,291.6,158.3,291.6,153.4z M400.5,200.9c0,4.9-4,8.9-8.9,8.9h-91.1c-4.9,0-8.9-4-8.9-8.9s4-8.9,8.9-8.9h91.1
	C396.5,192,400.5,196,400.5,200.9z" tabindex="579600"/>
</svg>
