<?xml version="1.0" encoding="utf-8"?>
<!-- Generator: Adobe Illustrator 24.0.3, SVG Export Plug-In . SVG Version: 6.00 Build 0)  -->
<svg version="1.1" id="docs" xmlns="http://www.w3.org/2000/svg" xmlns:xlink="http://www.w3.org/1999/xlink" x="0px" y="0px"
	 viewBox="0 0 512 512" style="enable-background:new 0 0 512 512;" xml:space="preserve">
<style type="text/css">
	.st0{fill:#E3351E;}
</style>
<path class="st0" d="M232.4,286.5c7.8,2.1,15.8,3.1,23.7,3.1c15.8,0,31.4-4.1,45.4-12.2c43.5-25.1,58.4-80.9,33.3-124.4
	c-25.1-43.5-80.9-58.4-124.4-33.3c-21.1,12.2-36.1,31.8-42.4,55.3c-6.3,23.5-3.1,48,9.1,69.1C189.3,265.1,208.9,280.2,232.4,286.5z
	 M185.3,179.5c5.1-18.9,17.2-34.7,34.1-44.5c11.5-6.6,24.1-9.8,36.5-9.8c25.3,0,50,13.1,63.5,36.6c20.2,35,8.2,79.8-26.8,100
	c-16.9,9.8-36.7,12.4-55.6,7.3c-18.9-5.1-34.7-17.2-44.5-34.1C182.8,218.2,180.2,198.4,185.3,179.5z M224.7,251.4
	c1.4,0.8,2.9,1.2,4.5,1.2c1.5,0,3.1-0.4,4.5-1.2l73.9-42.7c2.8-1.6,4.5-4.5,4.5-7.7c0-3.2-1.7-6.1-4.5-7.7l-73.9-42.7
	c-2.8-1.6-6.2-1.6-8.9,0c-2.8,1.6-4.5,4.5-4.5,7.7l0,42.7l0,42.7C220.2,246.9,221.9,249.8,224.7,251.4z M238.1,173.8l47.1,27.2
	l-47.1,27.2l0-27.2L238.1,173.8z M450.1,48.6H61.9c-18.4,0-33.4,15-33.4,33.4v267.5c0,18.4,15,33.4,33.4,33.4h149.5v62.5h-60
	c-4.9,0-8.9,4-8.9,8.9s4,8.9,8.9,8.9h209.1c4.9,0,8.9-4,8.9-8.9s-4-8.9-8.9-8.9h-60V383h149.5c18.4,0,33.4-15,33.4-33.4V82
	C483.5,63.6,468.5,48.6,450.1,48.6z M61.9,66.5h388.1c8.6,0,15.5,7,15.5,15.5v244.5H46.4V82C46.4,73.5,53.4,66.5,61.9,66.5z
	 M282.7,445.5h-53.3V383h53.3V445.5z M450.1,365.1H61.9c-8.6,0-15.5-7-15.5-15.5v-5.2h419.2v5.2
	C465.6,358.1,458.6,365.1,450.1,365.1z" tabindex="94712"/>
</svg>
