<?xml version="1.0" encoding="utf-8"?>
<!-- Generator: Adobe Illustrator 24.0.3, SVG Export Plug-In . SVG Version: 6.00 Build 0)  -->
<svg version="1.1" id="docs" xmlns="http://www.w3.org/2000/svg" xmlns:xlink="http://www.w3.org/1999/xlink" x="0px" y="0px"
	 viewBox="0 0 512 512" style="enable-background:new 0 0 512 512;" xml:space="preserve">
<style type="text/css">
	.st0{fill:#4900B8;}
</style>
<path class="st0" d="M223.5,143.6c0,16-9.9,24.2-17.8,30.7c-7.7,6.4-13.8,11.4-13.8,23.2c0,4.8-3.9,8.7-8.7,8.7s-8.7-3.9-8.7-8.7
	c0-20,11.6-29.6,20.1-36.6c7.6-6.2,11.5-9.9,11.5-17.4c0-7.3-1.9-16.4-11.2-18.8c-8.7-2.2-21.7,2.6-28.3,14.6
	c-2.3,4.2-7.6,5.7-11.8,3.4c-4.2-2.3-5.7-7.6-3.4-11.8c9.7-17.7,30.3-27.6,47.8-23.1C214.4,111.8,223.5,125.2,223.5,143.6z
	 M184,225.1c-4.8-0.5-9,2.9-9.5,7.7c-0.2,1.7-0.3,3.4-0.3,5.2c0,4.8,3.9,8.7,8.7,8.7s8.7-3.9,8.7-8.7c0-1.2,0.1-2.3,0.2-3.4
	C192.2,229.9,188.8,225.6,184,225.1z M375,241.5c-4.8-0.5-9,2.9-9.6,7.7l-9.1,81.6c-0.5,4.8,2.9,9,7.7,9.6c0.3,0,0.6,0.1,1,0.1
	c4.4,0,8.1-3.3,8.6-7.7l9.1-81.6C383.2,246.3,379.7,242,375,241.5z M364.1,359.2c-4.7-0.8-9.2,2.4-10,7.1c-0.3,1.7-0.5,3.4-0.6,5.2
	c-0.3,4.8,3.3,8.9,8.1,9.2c0.2,0,0.4,0,0.6,0c4.5,0,8.4-3.5,8.6-8.1c0.1-1.2,0.2-2.3,0.4-3.4C372,364.5,368.9,360,364.1,359.2z
	 M474.5,305.6c0,75.6-65.1,137-145.2,137c-13.8,0-27.5-1.8-40.6-5.4c-13.9,13.3-23.8,19.4-49.7,33.4c0,0,0,0-0.1,0c0,0,0,0,0,0
	c0,0,0,0,0,0c-0.3,0.1-0.6,0.3-0.9,0.4c-0.1,0-0.2,0.1-0.3,0.1c-0.2,0.1-0.4,0.2-0.7,0.2c-0.1,0-0.2,0.1-0.3,0.1
	c-0.2,0.1-0.4,0.1-0.7,0.1c-0.1,0-0.2,0-0.3,0c-0.3,0-0.6,0.1-0.9,0.1c0,0,0,0,0,0c0,0,0,0,0,0c0,0,0,0,0,0c-0.3,0-0.7,0-1-0.1
	c-0.1,0-0.2,0-0.3,0c-0.3,0-0.5-0.1-0.8-0.2c-0.1,0-0.2,0-0.2-0.1c-0.7-0.2-1.3-0.5-1.9-0.8c-0.1,0-0.2-0.1-0.2-0.1
	c-0.2-0.1-0.4-0.3-0.6-0.4c-0.1-0.1-0.2-0.1-0.2-0.2c-0.3-0.2-0.5-0.4-0.7-0.7c-0.1-0.1-0.1-0.1-0.2-0.2c-0.2-0.2-0.4-0.4-0.5-0.6
	c-0.1-0.1-0.1-0.2-0.2-0.2c-0.2-0.3-0.4-0.6-0.6-0.9c0,0,0,0,0,0c0,0,0,0,0-0.1c-0.1-0.2-0.2-0.5-0.3-0.7c0-0.1-0.1-0.2-0.1-0.2
	c-0.1-0.2-0.1-0.4-0.2-0.6c0-0.1-0.1-0.3-0.1-0.4c0-0.1-0.1-0.3-0.1-0.4c0-0.2-0.1-0.4-0.1-0.6c0-0.1,0-0.2,0-0.3c0-0.2,0-0.5,0-0.7
	c0,0,0-0.1,0-0.1l0,0c0,0,0,0,0-0.1l-0.3-61.3c-24.7-23.7-39.2-54.2-41.4-87.2c-0.6,0-1.2,0-1.8,0c-80.1,0-145.2-61.5-145.2-137
	s65.1-137,145.2-137c77,0,140.1,56.8,144.9,128.3c0.6-0.1,1.2-0.2,1.8-0.2C409.4,168.5,474.5,230,474.5,305.6z M182.7,297.1
	c13.8,0,27.5-2.1,40.5-6.1c0.8-0.3,1.7-0.4,2.6-0.4c2.3,0,4.5,0.9,6.1,2.5c12.2,12.1,19.6,17.5,36.8,27.1l0.2-50.6
	c0-2.4,1-4.7,2.8-6.4c25-22.7,38.8-53.2,38.8-85.9c0-66-57.3-119.7-127.8-119.7c-70.5,0-127.8,53.7-127.8,119.7
	S112.2,297.1,182.7,297.1z M457.2,305.6c0-66-57.3-119.7-127.8-119.7c-0.6,0-1.2-0.1-1.7-0.2c-2.1,33.2-16.6,64-41.4,87.8l-0.3,61.3
	c0,3-1.6,5.9-4.2,7.4c-1.4,0.8-2.9,1.2-4.4,1.2c-1.4,0-2.8-0.3-4.1-1c-26-14-35.9-20.2-49.8-33.4c-7.1,1.9-14.3,3.3-21.6,4.3
	c2,29.7,15.5,57.2,38.5,78.2c1.8,1.6,2.8,3.9,2.8,6.4l0.2,50.5c17.2-9.6,24.6-15,36.8-27.1c2.3-2.3,5.6-3.1,8.7-2.1
	c13,4.1,26.6,6.1,40.5,6.1C399.8,425.2,457.2,371.5,457.2,305.6z M327.7,359.2c-4.7-0.8-9.2,2.4-10,7.1c-0.3,1.7-0.5,3.4-0.6,5.2
	c-0.3,4.8,3.3,8.9,8.1,9.2c0.2,0,0.4,0,0.5,0c4.5,0,8.4-3.5,8.6-8.1c0.1-1.2,0.2-2.3,0.4-3.3C335.6,364.5,332.4,360,327.7,359.2z
	 M291.2,359.2c-4.7-0.8-9.2,2.4-10,7.1c-0.3,1.7-0.5,3.4-0.6,5.2c-0.3,4.8,3.3,8.9,8.1,9.2c0.2,0,0.4,0,0.5,0c4.5,0,8.4-3.5,8.6-8.1
	c0.1-1.2,0.2-2.3,0.4-3.3C299.1,364.5,295.9,360,291.2,359.2z" tabindex="71341985"/>
</svg>
