<?xml version="1.0" encoding="utf-8"?>
<!-- Generator: Adobe Illustrator 28.0.0, SVG Export Plug-In . SVG Version: 6.00 Build 0)  -->
<svg version="1.1" id="Слой_1" xmlns="http://www.w3.org/2000/svg" xmlns:xlink="http://www.w3.org/1999/xlink" x="0px" y="0px"
	 viewBox="0 0 256 256" style="enable-background:new 0 0 256 256;" xml:space="preserve">
<style type="text/css">
	.st0{fill:#8B008B;}
	.st1{fill:#FFFFFF;}
</style>
<g>
	<rect class="st0" width="256" height="256"/>
</g>
<path class="st1" d="M72.3,207c-1.3-17.3-2.7-30.7-4-40c9.3,4,17.3,6.7,24,8s13.3,2.7,18.7,2.7c6.7,0,12-1.3,16-2.7
	c4-1.3,6.7-5.3,6.7-9.3c0-1.3,0-2.7,0-4s-1.3-2.7-2.7-4c-1.3-1.3-2.7-2.7-5.3-5.3l-22.7-20c-5.3-4-9.3-8-10.7-9.3c-4-4-8-8-9.3-10.7
	c-2.7-4-4-6.7-5.3-10.7c-1.3-4-1.3-8-1.3-12c0-5.3,1.3-9.3,2.7-14.7c1.3-4,4-9.3,8-13.3s8-8,13.3-10.7c5.3-2.7,12-5.3,18.7-5.3
	c6.7-1.3,13.3-1.3,20-1.3c13.3,0,28,1.3,44,4c0,5.3,0,10.7,1.3,14.7c0,4,1.3,12,2.7,24c-6.7-2.7-13.3-5.3-20-6.7S156.3,79,151,79
	c-6.7,0-10.7,1.3-16,4c-4,2.7-6.7,5.3-6.7,8c0,1.3,0,2.7,1.3,4c0,1.3,1.3,2.7,4,5.3c2.7,2.7,4,4,6.7,6.7c2.7,2.7,6.7,5.3,13.3,10.7
	l8,6.7c2.7,2.7,5.3,4,8,8c2.7,2.7,5.3,5.3,8,9.3c2.7,2.7,4,5.3,5.3,8c1.3,2.7,2.7,5.3,2.7,6.7c0,2.7,1.3,5.3,1.3,8
	c0,6.7-1.3,13.3-5.3,20c-4,6.7-8,12-14.7,16c-6.7,4-13.3,6.7-20,9.3c-8,1.3-16,2.7-24,2.7C108.3,212.3,92.3,211,72.3,207z"/>
</svg>
